<svg width="38" height="43" viewBox="0 0 38 43" fill="none" xmlns="http://www.w3.org/2000/svg">
<g filter="url(#filter0_d_15961_41149)">
<path fill-rule="evenodd" clip-rule="evenodd" d="M0 18V36H3.16406H6.32812V31.7461V27.4922H15.8203H25.3125V31.7461V36H28.4766H31.6406V18V0H28.4766H25.3125V4.25391V8.50781H15.8203H6.32812V4.25391V0H3.16406H0V18ZM4.21875 3.16406V4.21875H3.16406H2.10938V3.16406V2.10938H3.16406H4.21875V3.16406ZM29.5312 3.16406V4.21875H28.4766H27.4219V3.16406V2.10938H28.4766H29.5312V3.16406ZM4.21875 7.41797V8.50781H3.16406H2.10938V7.41797V6.32812H3.16406H4.21875V7.41797ZM29.5312 7.41797V8.50781H28.4766H27.4219V7.41797V6.32812H28.4766H29.5312V7.41797ZM4.21875 11.6719V12.7266H3.16406H2.10938V11.6719V10.6172H3.16406H4.21875V11.6719ZM25.3125 18V25.3828H15.8203H6.32812V18V10.6172H15.8203H25.3125V18ZM29.5312 11.6719V12.7266H28.4766H27.4219V11.6719V10.6172H28.4766H29.5312V11.6719ZM4.21875 15.8906V16.9453H3.16406H2.10938V15.8906V14.8359H3.16406H4.21875V15.8906ZM29.5312 15.8906V16.9453H28.4766H27.4219V15.8906V14.8359H28.4766H29.5312V15.8906ZM4.21875 20.1094V21.1641H3.16406H2.10938V20.1094V19.0547H3.16406H4.21875V20.1094ZM29.5312 20.1094V21.1641H28.4766H27.4219V20.1094V19.0547H28.4766H29.5312V20.1094ZM4.21875 24.3281V25.3828H3.16406H2.10938V24.3281V23.2734H3.16406H4.21875V24.3281ZM29.5312 24.3281V25.3828H28.4766H27.4219V24.3281V23.2734H28.4766H29.5312V24.3281ZM4.21875 28.582V29.6719H3.16406H2.10938V28.582V27.4922H3.16406H4.21875V28.582ZM29.5312 28.582V29.6719H28.4766H27.4219V28.582V27.4922H28.4766H29.5312V28.582ZM4.21875 32.8359V33.8906H3.16406H2.10938V32.8359V31.7812H3.16406H4.21875V32.8359ZM29.5312 32.8359V33.8906H28.4766H27.4219V32.8359V31.7812H28.4766H29.5312V32.8359Z" fill="white"/>
</g>
<defs>
<filter id="filter0_d_15961_41149" x="0" y="0" width="37.6406" height="43" filterUnits="userSpaceOnUse" color-interpolation-filters="sRGB">
<feFlood flood-opacity="0" result="BackgroundImageFix"/>
<feColorMatrix in="SourceAlpha" type="matrix" values="0 0 0 0 0 0 0 0 0 0 0 0 0 0 0 0 0 0 127 0" result="hardAlpha"/>
<feOffset dx="3" dy="4"/>
<feGaussianBlur stdDeviation="1.5"/>
<feComposite in2="hardAlpha" operator="out"/>
<feColorMatrix type="matrix" values="0 0 0 0 0 0 0 0 0 0 0 0 0 0 0 0 0 0 0.5 0"/>
<feBlend mode="normal" in2="BackgroundImageFix" result="effect1_dropShadow_15961_41149"/>
<feBlend mode="normal" in="SourceGraphic" in2="effect1_dropShadow_15961_41149" result="shape"/>
</filter>
</defs>
</svg>
